<?xml version="1.0"?>
<svg xmlns="http://www.w3.org/2000/svg" viewBox="0 0 64 64" width="512" height="512"><g id="man-cat-clock-working-work_at_home" data-name="man-cat-clock-working-work at home"><path d="M61,45H56V36h1a1,1,0,0,0,1-1V30a5,5,0,0,0-5-5H48V19.95a6.448,6.448,0,0,0,1-3.45V16h1a2.006,2.006,0,0,0,2-2V12a2.006,2.006,0,0,0-2-2H49V9a6,6,0,0,0-6-6c-.12,0-.24.01-.36.02A7,7,0,0,0,32,9a1,1,0,0,0,1,1h3v1H33a2.006,2.006,0,0,0-2,2v2H30a3.009,3.009,0,0,0-3,3V33.83a4.085,4.085,0,0,0,3.79,4.16A1.477,1.477,0,0,0,31,38a3.953,3.953,0,0,0,2-.55v1.33A2.986,2.986,0,0,0,32,41v4H29V44a3.009,3.009,0,0,0-3-3V25a1,1,0,0,0-1.51-.86l-4.08,2.45-6.96-3.48a.977.977,0,0,0-1.06.1.988.988,0,0,0-.37.99L13,29.1v2.96a7.937,7.937,0,0,0-2.4.72l-.54-3.41a3,3,0,0,0-5.96.47,3.378,3.378,0,0,0,.03.47L6,42.08V45H3a1,1,0,0,0-1,1v5a1,1,0,0,0,1,1H4v9a1,1,0,0,0,1,1H59a1,1,0,0,0,1-1V52h1a1,1,0,0,0,1-1V46A1,1,0,0,0,61,45ZM49,12h1v2H49ZM47.87,27H53a3.009,3.009,0,0,1,3,3v4H48V33H46v2a1,1,0,0,0,1,1h1v4H40.62l-.73-1.45A.977.977,0,0,0,39,38h-.38l1.827-3.662A1,1,0,0,0,40,33h0a1,1,0,0,0-1.343.444L36.38,38H35V34h-.01c0-.03.01-.06.01-.09L34.37,27h5.77a3.99,3.99,0,0,0,7.73,0ZM54,36v9H34V41a1,1,0,0,1,1-1h3.38l.73,1.45A.977.977,0,0,0,40,42h9a1,1,0,0,0,1-1V36ZM42,26V22.97a4.193,4.193,0,0,0,.5.03A6.445,6.445,0,0,0,46,21.97V26a2,2,0,0,1-4,0Zm5-9.5a4.5,4.5,0,0,1-9,0V10h9ZM34.1,8a5,5,0,0,1,7.73-3.12,1.009,1.009,0,0,0,.69.17l.17-.02A2.962,2.962,0,0,1,43,5a4,4,0,0,1,3.87,3Zm3.88,13.16A6.42,6.42,0,0,0,40,22.5V25H34.19l-.18-1.88.04-.12H36A1.987,1.987,0,0,0,37.98,21.16ZM33,13h3v8H34.72l.23-.68A1.185,1.185,0,0,0,35,20a2.006,2.006,0,0,0-2-2Zm-.62,22.45a2.008,2.008,0,0,1-1.49.55A2.127,2.127,0,0,1,29,33.83V18a1,1,0,0,1,1-1h1v2a1,1,0,0,0,1,1h.95l-.9,2.68a1.128,1.128,0,0,0-.05.41L33,34A1.989,1.989,0,0,1,32.38,35.45Zm-21.94-.27A5.9,5.9,0,0,1,14,34a1,1,0,0,0,1-1V29a1.355,1.355,0,0,0-.02-.2l-.6-2.99L20,28.62a.992.992,0,0,0,.96-.03L24,26.77V41H23a1,1,0,0,1-1-1V39H20v1a3.009,3.009,0,0,0,3,3h3a1,1,0,0,1,1,1v1H17.92A7,7,0,0,0,11,39a6.911,6.911,0,0,0-2.98.67A6,6,0,0,1,10.44,35.18ZM15.9,45H8V42.03A4.929,4.929,0,0,1,11,41,5.017,5.017,0,0,1,15.9,45ZM6.1,29.84a1,1,0,0,1,.84-.99.989.989,0,0,1,1.14.83l.68,4.3a7.952,7.952,0,0,0-1.69,2.06L6.1,29.97ZM58,60H6V52H58Zm2-10H4V47H60Z"/><circle cx="18" cy="32" r="1"/><circle cx="22" cy="32" r="1"/><path d="M15,18a8,8,0,1,0-8-8A8.009,8.009,0,0,0,15,18ZM15,4a6,6,0,1,1-6,6A6.006,6.006,0,0,1,15,4Z"/><path d="M14.445,10.832l3,2,1.11-1.664L16,9.465V6H14v4A1,1,0,0,0,14.445,10.832Z"/></g></svg>
